<svg xmlns="http://www.w3.org/2000/svg" xmlns:xlink="http://www.w3.org/1999/xlink" width="440" height="494.001" viewBox="0 0 440 494.001"><defs><clipPath id="a"><path d="M-4575.18,983.329-4784,864.22V610.344l207.518-121.016h25.138L-4344,610.206V864.355l-208.647,118.974Zm-19.647-390.993a147.273,147.273,0,0,0-27.781,8.623,148.2,148.2,0,0,0-25.141,13.646,149.216,149.216,0,0,0-21.9,18.072,149.305,149.305,0,0,0-18.072,21.9,148.157,148.157,0,0,0-13.645,25.14,147.645,147.645,0,0,0-8.624,27.781A149.163,149.163,0,0,0-4713,737.328a149.149,149.149,0,0,0,3.007,29.827,147.646,147.646,0,0,0,8.624,27.781,148.16,148.16,0,0,0,13.645,25.14,149.2,149.2,0,0,0,18.072,21.9,149.216,149.216,0,0,0,21.9,18.072,148.043,148.043,0,0,0,25.141,13.645,147.3,147.3,0,0,0,27.781,8.624A149.019,149.019,0,0,0-4565,885.328a149.024,149.024,0,0,0,29.827-3.006,147.187,147.187,0,0,0,27.781-8.624,147.788,147.788,0,0,0,25.14-13.645,149.024,149.024,0,0,0,21.905-18.072,149.168,149.168,0,0,0,18.072-21.9c2.06-3.047,4.044-6.238,5.9-9.484l-64.211-36.862a74.232,74.232,0,0,1-64.412,37.6,74.084,74.084,0,0,1-74-74,74.083,74.083,0,0,1,74-74,74.316,74.316,0,0,1,64.109,37.067l63.9-37.4c-1.658-2.848-3.437-5.681-5.285-8.419a149.229,149.229,0,0,0-18.072-21.9,149.109,149.109,0,0,0-21.905-18.072,147.968,147.968,0,0,0-25.14-13.646,147.215,147.215,0,0,0-27.781-8.623A149.01,149.01,0,0,0-4565,589.328,149.008,149.008,0,0,0-4594.827,592.336ZM-4406,745.328h16.5v16.5h17v-16.5h16.5v-17h-16.5v-16.5h-17v16.5H-4406Zm-61,0h16.5v16.5h17v-16.5h16.5v-17h-16.5v-16.5h-17v16.5H-4467Z" transform="translate(5615 485.671)" fill="#fff" stroke="#707070" stroke-width="1"/></clipPath><clipPath id="b"><rect width="979.378" height="597.704" fill="none"/></clipPath></defs><g transform="translate(-830.999 -974.999)" opacity="0.5" clip-path="url(#a)"><g transform="translate(481.311 912.823)" clip-path="url(#b)"><g transform="translate(-704.719 -1137.544)"><path d="M1655.291,656.559s57.629,129.665-41.164,277.854-102.909,366.356-102.909,366.356" transform="translate(-804 482)" fill="none" stroke="#1a84ef" stroke-linecap="round" stroke-width="3"/></g><g transform="translate(-683.719 -1137.544)"><path d="M1655.291,656.559s57.629,129.665-41.164,277.854-102.909,366.356-102.909,366.356" transform="translate(-804 482)" fill="none" stroke="#1a84ef" stroke-linecap="round" stroke-width="3"/></g><g transform="translate(-662.719 -1137.544)"><path d="M1655.291,656.559s57.629,129.665-41.164,277.854-102.909,366.356-102.909,366.356" transform="translate(-804 482)" fill="none" stroke="#1a84ef" stroke-linecap="round" stroke-width="3"/></g><g transform="translate(-641.719 -1137.544)"><path d="M1655.291,656.559s57.629,129.665-41.164,277.854-102.909,366.356-102.909,366.356" transform="translate(-804 482)" fill="none" stroke="#1a84ef" stroke-linecap="round" stroke-width="3"/></g><g transform="translate(-620.719 -1137.544)"><path d="M1655.291,656.559s57.629,129.665-41.164,277.854-102.909,366.356-102.909,366.356" transform="translate(-804 482)" fill="none" stroke="#1a84ef" stroke-linecap="round" stroke-width="3"/></g><g transform="translate(-599.719 -1137.544)"><path d="M1655.291,656.559s57.629,129.665-41.164,277.854-102.909,366.356-102.909,366.356" transform="translate(-804 482)" fill="none" stroke="#1a84ef" stroke-linecap="round" stroke-width="3"/></g><g transform="translate(-578.719 -1137.544)"><path d="M1655.291,656.559s57.629,129.665-41.164,277.854-102.909,366.356-102.909,366.356" transform="translate(-804 482)" fill="none" stroke="#1a84ef" stroke-linecap="round" stroke-width="3"/></g><g transform="translate(-557.719 -1137.544)"><path d="M1655.291,656.559s57.629,129.665-41.164,277.854-102.909,366.356-102.909,366.356" transform="translate(-804 482)" fill="none" stroke="#1a84ef" stroke-linecap="round" stroke-width="3"/></g><g transform="translate(-536.719 -1137.544)"><path d="M1655.291,656.559s57.629,129.665-41.164,277.854-102.909,366.356-102.909,366.356" transform="translate(-804 482)" fill="none" stroke="#1a84ef" stroke-linecap="round" stroke-width="3"/></g><g transform="translate(-515.719 -1137.544)"><path d="M1655.291,656.559s57.629,129.665-41.164,277.854-102.909,366.356-102.909,366.356" transform="translate(-804 482)" fill="none" stroke="#1a84ef" stroke-linecap="round" stroke-width="3"/></g><g transform="translate(-494.719 -1137.544)"><path d="M1655.291,656.559s57.629,129.665-41.164,277.854-102.909,366.356-102.909,366.356" transform="translate(-804 482)" fill="none" stroke="#1a84ef" stroke-linecap="round" stroke-width="3"/></g><g transform="translate(-473.719 -1137.544)"><path d="M1655.291,656.559s57.629,129.665-41.164,277.854-102.909,366.356-102.909,366.356" transform="translate(-804 482)" fill="none" stroke="#1a84ef" stroke-linecap="round" stroke-width="3"/></g><g transform="translate(-452.719 -1137.544)"><path d="M1655.291,656.559s57.629,129.665-41.164,277.854-102.909,366.356-102.909,366.356" transform="translate(-804 482)" fill="none" stroke="#1a84ef" stroke-linecap="round" stroke-width="3"/></g><g transform="translate(-431.719 -1137.544)"><path d="M1655.291,656.559s57.629,129.665-41.164,277.854-102.909,366.356-102.909,366.356" transform="translate(-804 482)" fill="none" stroke="#1a84ef" stroke-linecap="round" stroke-width="3"/></g><g transform="translate(-410.719 -1137.544)"><path d="M1655.291,656.559s57.629,129.665-41.164,277.854-102.909,366.356-102.909,366.356" transform="translate(-804 482)" fill="none" stroke="#1a84ef" stroke-linecap="round" stroke-width="3"/></g><g transform="translate(-389.719 -1137.544)"><path d="M1655.291,656.559s57.629,129.665-41.164,277.854-102.909,366.356-102.909,366.356" transform="translate(-804 482)" fill="none" stroke="#1a84ef" stroke-linecap="round" stroke-width="3"/></g><g transform="translate(-368.719 -1137.544)"><path d="M1655.291,656.559s57.629,129.665-41.164,277.854-102.909,366.356-102.909,366.356" transform="translate(-804 482)" fill="none" stroke="#1a84ef" stroke-linecap="round" stroke-width="3"/></g><g transform="translate(-347.719 -1137.544)"><path d="M1655.291,656.559s57.629,129.665-41.164,277.854-102.909,366.356-102.909,366.356" transform="translate(-804 482)" fill="none" stroke="#1a84ef" stroke-linecap="round" stroke-width="3"/></g><g transform="translate(-326.719 -1137.544)"><path d="M1655.291,656.559s57.629,129.665-41.164,277.854-102.909,366.356-102.909,366.356" transform="translate(-804 482)" fill="none" stroke="#1a84ef" stroke-linecap="round" stroke-width="3"/></g><g transform="translate(-305.719 -1137.544)"><path d="M1655.291,656.559s57.629,129.665-41.164,277.854-102.909,366.356-102.909,366.356" transform="translate(-804 482)" fill="none" stroke="#1a84ef" stroke-linecap="round" stroke-width="3"/></g><g transform="translate(-284.719 -1137.544)"><path d="M1655.291,656.559s57.629,129.665-41.164,277.854-102.909,366.356-102.909,366.356" transform="translate(-804 482)" fill="none" stroke="#1a84ef" stroke-linecap="round" stroke-width="3"/></g><g transform="translate(-263.719 -1137.544)"><path d="M1655.291,656.559s57.629,129.665-41.164,277.854-102.909,366.356-102.909,366.356" transform="translate(-804 482)" fill="none" stroke="#1a84ef" stroke-linecap="round" stroke-width="3"/></g><g transform="translate(-242.719 -1137.544)"><path d="M1655.291,656.559s57.629,129.665-41.164,277.854-102.909,366.356-102.909,366.356" transform="translate(-804 482)" fill="none" stroke="#1a84ef" stroke-linecap="round" stroke-width="3"/></g><g transform="translate(-221.719 -1137.544)"><path d="M1655.291,656.559s57.629,129.665-41.164,277.854-102.909,366.356-102.909,366.356" transform="translate(-804 482)" fill="none" stroke="#1a84ef" stroke-linecap="round" stroke-width="3"/></g><g transform="translate(-200.719 -1137.544)"><path d="M1655.291,656.559s57.629,129.665-41.164,277.854-102.909,366.356-102.909,366.356" transform="translate(-804 482)" fill="none" stroke="#1a84ef" stroke-linecap="round" stroke-width="3"/></g><g transform="translate(-179.719 -1137.544)"><path d="M1655.291,656.559s57.629,129.665-41.164,277.854-102.909,366.356-102.909,366.356" transform="translate(-804 482)" fill="none" stroke="#1a84ef" stroke-linecap="round" stroke-width="3"/></g><g transform="translate(-158.719 -1137.544)"><path d="M1655.291,656.559s57.629,129.665-41.164,277.854-102.909,366.356-102.909,366.356" transform="translate(-804 482)" fill="none" stroke="#1a84ef" stroke-linecap="round" stroke-width="3"/></g><g transform="translate(-137.719 -1137.544)"><path d="M1655.291,656.559s57.629,129.665-41.164,277.854-102.909,366.356-102.909,366.356" transform="translate(-804 482)" fill="none" stroke="#1a84ef" stroke-linecap="round" stroke-width="3"/></g><g transform="translate(-116.719 -1137.544)"><path d="M1655.291,656.559s57.629,129.665-41.164,277.854-102.909,366.356-102.909,366.356" transform="translate(-804 482)" fill="none" stroke="#1a84ef" stroke-linecap="round" stroke-width="3"/></g><g transform="translate(-95.719 -1137.544)"><path d="M1655.291,656.559s57.629,129.665-41.164,277.854-102.909,366.356-102.909,366.356" transform="translate(-804 482)" fill="none" stroke="#1a84ef" stroke-linecap="round" stroke-width="3"/></g><g transform="translate(-74.719 -1137.544)"><path d="M1655.291,656.559s57.629,129.665-41.164,277.854-102.909,366.356-102.909,366.356" transform="translate(-804 482)" fill="none" stroke="#1a84ef" stroke-linecap="round" stroke-width="3"/></g><g transform="translate(-53.719 -1137.544)"><path d="M1655.291,656.559s57.629,129.665-41.164,277.854-102.909,366.356-102.909,366.356" transform="translate(-804 482)" fill="none" stroke="#1a84ef" stroke-linecap="round" stroke-width="3"/></g><g transform="translate(-32.719 -1137.544)"><path d="M1655.291,656.559s57.629,129.665-41.164,277.854-102.909,366.356-102.909,366.356" transform="translate(-804 482)" fill="none" stroke="#1a84ef" stroke-linecap="round" stroke-width="3"/></g><g transform="translate(-11.719 -1137.544)"><path d="M1655.291,656.559s57.629,129.665-41.164,277.854-102.909,366.356-102.909,366.356" transform="translate(-804 482)" fill="none" stroke="#1a84ef" stroke-linecap="round" stroke-width="3"/></g><g transform="translate(9.281 -1137.544)"><path d="M1655.291,656.559s57.629,129.665-41.164,277.854-102.909,366.356-102.909,366.356" transform="translate(-804 482)" fill="none" stroke="#1a84ef" stroke-linecap="round" stroke-width="3"/></g><g transform="translate(30.281 -1137.544)"><path d="M1655.291,656.559s57.629,129.665-41.164,277.854-102.909,366.356-102.909,366.356" transform="translate(-804 482)" fill="none" stroke="#1a84ef" stroke-linecap="round" stroke-width="3"/></g><g transform="translate(51.281 -1137.544)"><path d="M1655.291,656.559s57.629,129.665-41.164,277.854-102.909,366.356-102.909,366.356" transform="translate(-804 482)" fill="none" stroke="#1a84ef" stroke-linecap="round" stroke-width="3"/></g><g transform="translate(72.281 -1137.544)"><path d="M1655.291,656.559s57.629,129.665-41.164,277.854-102.909,366.356-102.909,366.356" transform="translate(-804 482)" fill="none" stroke="#1a84ef" stroke-linecap="round" stroke-width="3"/></g><g transform="translate(93.281 -1137.544)"><path d="M1655.291,656.559s57.629,129.665-41.164,277.854-102.909,366.356-102.909,366.356" transform="translate(-804 482)" fill="none" stroke="#1a84ef" stroke-linecap="round" stroke-width="3"/></g><g transform="translate(114.281 -1137.544)"><path d="M1655.291,656.559s57.629,129.665-41.164,277.854-102.909,366.356-102.909,366.356" transform="translate(-804 482)" fill="none" stroke="#1a84ef" stroke-linecap="round" stroke-width="3"/></g><g transform="translate(135.281 -1137.544)"><path d="M1655.291,656.559s57.629,129.665-41.164,277.854-102.909,366.356-102.909,366.356" transform="translate(-804 482)" fill="none" stroke="#1a84ef" stroke-linecap="round" stroke-width="3"/></g><g transform="translate(156.281 -1137.544)"><path d="M1655.291,656.559s57.629,129.665-41.164,277.854-102.909,366.356-102.909,366.356" transform="translate(-804 482)" fill="none" stroke="#1a84ef" stroke-linecap="round" stroke-width="3"/></g><g transform="translate(177.281 -1137.544)"><path d="M1655.291,656.559s57.629,129.665-41.164,277.854-102.909,366.356-102.909,366.356" transform="translate(-804 482)" fill="none" stroke="#1a84ef" stroke-linecap="round" stroke-width="3"/></g><g transform="translate(198.281 -1137.544)"><path d="M1655.291,656.559s57.629,129.665-41.164,277.854-102.909,366.356-102.909,366.356" transform="translate(-804 482)" fill="none" stroke="#1a84ef" stroke-linecap="round" stroke-width="3"/></g><g transform="translate(219.281 -1137.544)"><path d="M1655.291,656.559s57.629,129.665-41.164,277.854-102.909,366.356-102.909,366.356" transform="translate(-804 482)" fill="none" stroke="#1a84ef" stroke-linecap="round" stroke-width="3"/></g><g transform="translate(240.281 -1137.544)"><path d="M1655.291,656.559s57.629,129.665-41.164,277.854-102.909,366.356-102.909,366.356" transform="translate(-804 482)" fill="none" stroke="#1a84ef" stroke-linecap="round" stroke-width="3"/></g><g transform="translate(261.281 -1137.544)"><path d="M1655.291,656.559s57.629,129.665-41.164,277.854-102.909,366.356-102.909,366.356" transform="translate(-804 482)" fill="none" stroke="#1a84ef" stroke-linecap="round" stroke-width="3"/></g></g></g></svg>