<svg xmlns="http://www.w3.org/2000/svg" xmlns:xlink="http://www.w3.org/1999/xlink" width="439.058" height="439.059" viewBox="0 0 439.058 439.059"><defs><clipPath id="a"><path d="M439.058,439.059H0V0H439.058V439.058Zm-245-219.344V340.371a29.489,29.489,0,0,1-1.144,8.64,15.846,15.846,0,0,1-3.432,6.172,15.254,15.254,0,0,1-5.84,3.823,27.472,27.472,0,0,1-8.369,1.6l-18.3,1.2,2.168,30.1,22.4-1.2c33.4-1.918,50.334-19.015,50.334-50.816V219.714ZM270.4,345.429l-12.042,26.732c7.828,6.071,17.8,10.893,29.623,14.33a132.867,132.867,0,0,0,37.088,5.178c22.053,0,39.474-4.659,51.779-13.848s18.544-21.951,18.544-37.931c0-13.263-4.821-23.8-14.33-31.308s-25.349-13.75-47.083-18.545a166.463,166.463,0,0,1-21.554-6.021c-5.034-1.917-8.68-4.146-10.837-6.623a14.024,14.024,0,0,1-3.251-9.514,18.277,18.277,0,0,1,2.107-8.82,19.187,19.187,0,0,1,6.322-6.713,31.132,31.132,0,0,1,9.995-4.245,55.64,55.64,0,0,1,13.125-1.415,76.27,76.27,0,0,1,12.734,1.069,77.364,77.364,0,0,1,12.433,3.206,85.116,85.116,0,0,1,12.132,5.343,100.153,100.153,0,0,1,11.831,7.481l12.041-26.732c-6.551-5.913-15.505-10.694-26.612-14.21a115.157,115.157,0,0,0-34.8-5.3c-13.424,0-25.416,2.309-35.643,6.863s-18.291,10.916-23.963,18.906a46.452,46.452,0,0,0-8.549,27.455c0,9.269,2.066,17.17,6.141,23.482s10.639,11.7,19.508,16.015,20.9,8.041,35.764,11.078c6.632,1.438,12.334,2.917,16.948,4.395a56.264,56.264,0,0,1,10.867,4.516,16.442,16.442,0,0,1,5.87,5.479,13.714,13.714,0,0,1,1.957,7.285,15.685,15.685,0,0,1-2.137,8.158A18.334,18.334,0,0,1,350,357.35a33.417,33.417,0,0,1-10.386,3.883,68.632,68.632,0,0,1-14.059,1.295,102.933,102.933,0,0,1-14.916-1.069,94.287,94.287,0,0,1-14.164-3.206,92.619,92.619,0,0,1-13.411-5.343,97.848,97.848,0,0,1-12.659-7.481Z" transform="translate(723.5 1452.5)" fill="none" stroke="#707070" stroke-width="1"/></clipPath><clipPath id="b"><rect width="979.378" height="597.704" fill="none"/></clipPath></defs><g transform="translate(-723.5 -1452.5)" opacity="0.5" clip-path="url(#a)"><g transform="translate(478.238 1372.88)" clip-path="url(#b)"><g transform="translate(-704.719 -1137.544)"><path d="M1655.291,656.559s57.629,129.665-41.164,277.854-102.909,366.356-102.909,366.356" transform="translate(-804 482)" fill="none" stroke="#efaf1a" stroke-linecap="round" stroke-width="3"/></g><g transform="translate(-683.719 -1137.544)"><path d="M1655.291,656.559s57.629,129.665-41.164,277.854-102.909,366.356-102.909,366.356" transform="translate(-804 482)" fill="none" stroke="#efaf1a" stroke-linecap="round" stroke-width="3"/></g><g transform="translate(-662.719 -1137.544)"><path d="M1655.291,656.559s57.629,129.665-41.164,277.854-102.909,366.356-102.909,366.356" transform="translate(-804 482)" fill="none" stroke="#efaf1a" stroke-linecap="round" stroke-width="3"/></g><g transform="translate(-641.719 -1137.544)"><path d="M1655.291,656.559s57.629,129.665-41.164,277.854-102.909,366.356-102.909,366.356" transform="translate(-804 482)" fill="none" stroke="#efaf1a" stroke-linecap="round" stroke-width="3"/></g><g transform="translate(-620.719 -1137.544)"><path d="M1655.291,656.559s57.629,129.665-41.164,277.854-102.909,366.356-102.909,366.356" transform="translate(-804 482)" fill="none" stroke="#efaf1a" stroke-linecap="round" stroke-width="3"/></g><g transform="translate(-599.719 -1137.544)"><path d="M1655.291,656.559s57.629,129.665-41.164,277.854-102.909,366.356-102.909,366.356" transform="translate(-804 482)" fill="none" stroke="#efaf1a" stroke-linecap="round" stroke-width="3"/></g><g transform="translate(-578.719 -1137.544)"><path d="M1655.291,656.559s57.629,129.665-41.164,277.854-102.909,366.356-102.909,366.356" transform="translate(-804 482)" fill="none" stroke="#efaf1a" stroke-linecap="round" stroke-width="3"/></g><g transform="translate(-557.719 -1137.544)"><path d="M1655.291,656.559s57.629,129.665-41.164,277.854-102.909,366.356-102.909,366.356" transform="translate(-804 482)" fill="none" stroke="#efaf1a" stroke-linecap="round" stroke-width="3"/></g><g transform="translate(-536.719 -1137.544)"><path d="M1655.291,656.559s57.629,129.665-41.164,277.854-102.909,366.356-102.909,366.356" transform="translate(-804 482)" fill="none" stroke="#efaf1a" stroke-linecap="round" stroke-width="3"/></g><g transform="translate(-515.719 -1137.544)"><path d="M1655.291,656.559s57.629,129.665-41.164,277.854-102.909,366.356-102.909,366.356" transform="translate(-804 482)" fill="none" stroke="#efaf1a" stroke-linecap="round" stroke-width="3"/></g><g transform="translate(-494.719 -1137.544)"><path d="M1655.291,656.559s57.629,129.665-41.164,277.854-102.909,366.356-102.909,366.356" transform="translate(-804 482)" fill="none" stroke="#efaf1a" stroke-linecap="round" stroke-width="3"/></g><g transform="translate(-473.719 -1137.544)"><path d="M1655.291,656.559s57.629,129.665-41.164,277.854-102.909,366.356-102.909,366.356" transform="translate(-804 482)" fill="none" stroke="#efaf1a" stroke-linecap="round" stroke-width="3"/></g><g transform="translate(-452.719 -1137.544)"><path d="M1655.291,656.559s57.629,129.665-41.164,277.854-102.909,366.356-102.909,366.356" transform="translate(-804 482)" fill="none" stroke="#efaf1a" stroke-linecap="round" stroke-width="3"/></g><g transform="translate(-431.719 -1137.544)"><path d="M1655.291,656.559s57.629,129.665-41.164,277.854-102.909,366.356-102.909,366.356" transform="translate(-804 482)" fill="none" stroke="#efaf1a" stroke-linecap="round" stroke-width="3"/></g><g transform="translate(-410.719 -1137.544)"><path d="M1655.291,656.559s57.629,129.665-41.164,277.854-102.909,366.356-102.909,366.356" transform="translate(-804 482)" fill="none" stroke="#efaf1a" stroke-linecap="round" stroke-width="3"/></g><g transform="translate(-389.719 -1137.544)"><path d="M1655.291,656.559s57.629,129.665-41.164,277.854-102.909,366.356-102.909,366.356" transform="translate(-804 482)" fill="none" stroke="#efaf1a" stroke-linecap="round" stroke-width="3"/></g><g transform="translate(-368.719 -1137.544)"><path d="M1655.291,656.559s57.629,129.665-41.164,277.854-102.909,366.356-102.909,366.356" transform="translate(-804 482)" fill="none" stroke="#efaf1a" stroke-linecap="round" stroke-width="3"/></g><g transform="translate(-347.719 -1137.544)"><path d="M1655.291,656.559s57.629,129.665-41.164,277.854-102.909,366.356-102.909,366.356" transform="translate(-804 482)" fill="none" stroke="#efaf1a" stroke-linecap="round" stroke-width="3"/></g><g transform="translate(-326.719 -1137.544)"><path d="M1655.291,656.559s57.629,129.665-41.164,277.854-102.909,366.356-102.909,366.356" transform="translate(-804 482)" fill="none" stroke="#efaf1a" stroke-linecap="round" stroke-width="3"/></g><g transform="translate(-305.719 -1137.544)"><path d="M1655.291,656.559s57.629,129.665-41.164,277.854-102.909,366.356-102.909,366.356" transform="translate(-804 482)" fill="none" stroke="#efaf1a" stroke-linecap="round" stroke-width="3"/></g><g transform="translate(-284.719 -1137.544)"><path d="M1655.291,656.559s57.629,129.665-41.164,277.854-102.909,366.356-102.909,366.356" transform="translate(-804 482)" fill="none" stroke="#efaf1a" stroke-linecap="round" stroke-width="3"/></g><g transform="translate(-263.719 -1137.544)"><path d="M1655.291,656.559s57.629,129.665-41.164,277.854-102.909,366.356-102.909,366.356" transform="translate(-804 482)" fill="none" stroke="#efaf1a" stroke-linecap="round" stroke-width="3"/></g><g transform="translate(-242.719 -1137.544)"><path d="M1655.291,656.559s57.629,129.665-41.164,277.854-102.909,366.356-102.909,366.356" transform="translate(-804 482)" fill="none" stroke="#efaf1a" stroke-linecap="round" stroke-width="3"/></g><g transform="translate(-221.719 -1137.544)"><path d="M1655.291,656.559s57.629,129.665-41.164,277.854-102.909,366.356-102.909,366.356" transform="translate(-804 482)" fill="none" stroke="#efaf1a" stroke-linecap="round" stroke-width="3"/></g><g transform="translate(-200.719 -1137.544)"><path d="M1655.291,656.559s57.629,129.665-41.164,277.854-102.909,366.356-102.909,366.356" transform="translate(-804 482)" fill="none" stroke="#efaf1a" stroke-linecap="round" stroke-width="3"/></g><g transform="translate(-179.719 -1137.544)"><path d="M1655.291,656.559s57.629,129.665-41.164,277.854-102.909,366.356-102.909,366.356" transform="translate(-804 482)" fill="none" stroke="#efaf1a" stroke-linecap="round" stroke-width="3"/></g><g transform="translate(-158.719 -1137.544)"><path d="M1655.291,656.559s57.629,129.665-41.164,277.854-102.909,366.356-102.909,366.356" transform="translate(-804 482)" fill="none" stroke="#efaf1a" stroke-linecap="round" stroke-width="3"/></g><g transform="translate(-137.719 -1137.544)"><path d="M1655.291,656.559s57.629,129.665-41.164,277.854-102.909,366.356-102.909,366.356" transform="translate(-804 482)" fill="none" stroke="#efaf1a" stroke-linecap="round" stroke-width="3"/></g><g transform="translate(-116.719 -1137.544)"><path d="M1655.291,656.559s57.629,129.665-41.164,277.854-102.909,366.356-102.909,366.356" transform="translate(-804 482)" fill="none" stroke="#efaf1a" stroke-linecap="round" stroke-width="3"/></g><g transform="translate(-95.719 -1137.544)"><path d="M1655.291,656.559s57.629,129.665-41.164,277.854-102.909,366.356-102.909,366.356" transform="translate(-804 482)" fill="none" stroke="#efaf1a" stroke-linecap="round" stroke-width="3"/></g><g transform="translate(-74.719 -1137.544)"><path d="M1655.291,656.559s57.629,129.665-41.164,277.854-102.909,366.356-102.909,366.356" transform="translate(-804 482)" fill="none" stroke="#efaf1a" stroke-linecap="round" stroke-width="3"/></g><g transform="translate(-53.719 -1137.544)"><path d="M1655.291,656.559s57.629,129.665-41.164,277.854-102.909,366.356-102.909,366.356" transform="translate(-804 482)" fill="none" stroke="#efaf1a" stroke-linecap="round" stroke-width="3"/></g><g transform="translate(-32.719 -1137.544)"><path d="M1655.291,656.559s57.629,129.665-41.164,277.854-102.909,366.356-102.909,366.356" transform="translate(-804 482)" fill="none" stroke="#efaf1a" stroke-linecap="round" stroke-width="3"/></g><g transform="translate(-11.719 -1137.544)"><path d="M1655.291,656.559s57.629,129.665-41.164,277.854-102.909,366.356-102.909,366.356" transform="translate(-804 482)" fill="none" stroke="#efaf1a" stroke-linecap="round" stroke-width="3"/></g><g transform="translate(9.281 -1137.544)"><path d="M1655.291,656.559s57.629,129.665-41.164,277.854-102.909,366.356-102.909,366.356" transform="translate(-804 482)" fill="none" stroke="#efaf1a" stroke-linecap="round" stroke-width="3"/></g><g transform="translate(30.281 -1137.544)"><path d="M1655.291,656.559s57.629,129.665-41.164,277.854-102.909,366.356-102.909,366.356" transform="translate(-804 482)" fill="none" stroke="#efaf1a" stroke-linecap="round" stroke-width="3"/></g><g transform="translate(51.281 -1137.544)"><path d="M1655.291,656.559s57.629,129.665-41.164,277.854-102.909,366.356-102.909,366.356" transform="translate(-804 482)" fill="none" stroke="#efaf1a" stroke-linecap="round" stroke-width="3"/></g><g transform="translate(72.281 -1137.544)"><path d="M1655.291,656.559s57.629,129.665-41.164,277.854-102.909,366.356-102.909,366.356" transform="translate(-804 482)" fill="none" stroke="#efaf1a" stroke-linecap="round" stroke-width="3"/></g><g transform="translate(93.281 -1137.544)"><path d="M1655.291,656.559s57.629,129.665-41.164,277.854-102.909,366.356-102.909,366.356" transform="translate(-804 482)" fill="none" stroke="#efaf1a" stroke-linecap="round" stroke-width="3"/></g><g transform="translate(114.281 -1137.544)"><path d="M1655.291,656.559s57.629,129.665-41.164,277.854-102.909,366.356-102.909,366.356" transform="translate(-804 482)" fill="none" stroke="#efaf1a" stroke-linecap="round" stroke-width="3"/></g><g transform="translate(135.281 -1137.544)"><path d="M1655.291,656.559s57.629,129.665-41.164,277.854-102.909,366.356-102.909,366.356" transform="translate(-804 482)" fill="none" stroke="#efaf1a" stroke-linecap="round" stroke-width="3"/></g><g transform="translate(156.281 -1137.544)"><path d="M1655.291,656.559s57.629,129.665-41.164,277.854-102.909,366.356-102.909,366.356" transform="translate(-804 482)" fill="none" stroke="#efaf1a" stroke-linecap="round" stroke-width="3"/></g><g transform="translate(177.281 -1137.544)"><path d="M1655.291,656.559s57.629,129.665-41.164,277.854-102.909,366.356-102.909,366.356" transform="translate(-804 482)" fill="none" stroke="#efaf1a" stroke-linecap="round" stroke-width="3"/></g><g transform="translate(198.281 -1137.544)"><path d="M1655.291,656.559s57.629,129.665-41.164,277.854-102.909,366.356-102.909,366.356" transform="translate(-804 482)" fill="none" stroke="#efaf1a" stroke-linecap="round" stroke-width="3"/></g><g transform="translate(219.281 -1137.544)"><path d="M1655.291,656.559s57.629,129.665-41.164,277.854-102.909,366.356-102.909,366.356" transform="translate(-804 482)" fill="none" stroke="#efaf1a" stroke-linecap="round" stroke-width="3"/></g><g transform="translate(240.281 -1137.544)"><path d="M1655.291,656.559s57.629,129.665-41.164,277.854-102.909,366.356-102.909,366.356" transform="translate(-804 482)" fill="none" stroke="#efaf1a" stroke-linecap="round" stroke-width="3"/></g><g transform="translate(261.281 -1137.544)"><path d="M1655.291,656.559s57.629,129.665-41.164,277.854-102.909,366.356-102.909,366.356" transform="translate(-804 482)" fill="none" stroke="#efaf1a" stroke-linecap="round" stroke-width="3"/></g></g></g></svg>