<svg xmlns="http://www.w3.org/2000/svg" viewBox="0 0 1056.97 218.39"><defs><style>.cls-1{fill:#fff;}.cls-2{fill:#09ffbf;}</style></defs><title>logo</title><g id="Warstwa_2" data-name="Warstwa 2"><g id="Warstwa_1-2" data-name="Warstwa 1"><path class="cls-1" d="M269,216V6.54h46.36V216Z"/><path class="cls-1" d="M476.38,81.86q12.78,15.31,12.78,46.21v88H444.29V130.15q0-14.87-5.5-21.69t-17.08-6.84q-14,0-22.44,8.91t-8.46,23.78V216H345.94V70.12h43.68v20.8A51.12,51.12,0,0,1,409.67,72.8a60.66,60.66,0,0,1,27.79-6.24Q463.59,66.56,476.38,81.86Z"/><path class="cls-1" d="M610.38,184.52,608,217.21a126.44,126.44,0,0,1-17.24,1.18q-33.27,0-48.58-14.56t-15.3-44.27V103.7H499.26V70.12h27.63V27.34h44.87V70.12H608.3V103.7H571.76v55.56q0,26.16,24.36,26.15A118.48,118.48,0,0,0,610.38,184.52Z"/><path class="cls-1" d="M754.2,151.54H659.11q2.08,17.53,11.44,25.4t26.6,7.88a70.46,70.46,0,0,0,22.43-3.72,72.2,72.2,0,0,0,20.35-10.54l11.89,30a81.24,81.24,0,0,1-26,13.07,103.19,103.19,0,0,1-30.75,4.75q-36.86,0-58.09-20.35t-21.25-55.42q0-22.28,9.21-39.51A67.51,67.51,0,0,1,650.5,76.22q16.34-9.66,37.14-9.66,30.6,0,48.58,19.91t18,54.07Zm-85.73-45.91q-7.58,8.18-9.36,23.62h57.35q-.88-15.73-7.87-23.77t-19.76-8Q676.05,97.46,668.47,105.63Z"/><path class="cls-1" d="M873.64,103.4l-25.25,2.68q-18.72,1.78-26.45,10.55T814.21,140V216H769.35V70.12h43.08V94.79q11-25.26,45.46-27.64L871,66.26Z"/><path class="cls-1" d="M884,0h48.13V41.9H884Zm1.48,216V70.12h44.87V216Z"/><path class="cls-1" d="M1057,184.52l-2.38,32.69a126.29,126.29,0,0,1-17.23,1.18q-33.28,0-48.58-14.56t-15.31-44.27V103.7H945.84V70.12h27.63V27.34h44.87V70.12h36.55V103.7h-36.55v55.56q0,26.16,24.37,26.15A118.61,118.61,0,0,0,1057,184.52Z"/><path class="cls-2" d="M152.39,14.47c4-2.19,11.67-6.09,17-8.71H151c-1,.5-1.84,1-2.59,1.39C87.52,40.55,50.84,109.13,55,181.88c0,.15.82,13.22-.2,35.3h8.36c1-22.24.21-35.2.17-35.8C59.36,111.85,94.34,46.33,152.39,14.47ZM44.47,5.76A261.91,261.91,0,0,0,0,84.36V114.5A254.24,254.24,0,0,1,55.75,5.76ZM194,175.35c0,.23,1,15.81-.46,41.83h8.38c1.47-26,.48-41.48.41-42.45a42.83,42.83,0,0,1,9.11-30.07v-12A51.21,51.21,0,0,0,194,175.35ZM187.49,39.21c-33.85,13.12-60.71,39.64-73.7,72.77-2.52,6.52-7.22,20.27-9.27,27.56-3.2,11.37-4.26,24.15-3.33,40.25,0,.19.88,14.06-.28,37.39h8.38c1.15-23.36.28-37.14.23-37.9-.87-15.12.09-27,3-37.48,1.93-6.88,6.57-20.49,9-26.79,12.13-30.95,37.26-55.74,68.94-68,5-2,14.92-5.32,20.9-7.14v-8.7l-.76.22C204.72,33.1,193.24,37,187.49,39.21ZM147.67,177.5c0,.25,1.15,15-.13,39.68h8.4c1.26-24.61.13-39.32.06-40.29A89.43,89.43,0,0,1,209.37,89.3c.68-.3,1.36-.58,2-.86v-9c-1.8.68-3.59,1.39-5.38,2.17A97.83,97.83,0,0,0,147.67,177.5Zm23.07-1c0,.21,1,15.33-.42,40.65h8.38c1.39-25.27.43-40.32.36-41.23a66.37,66.37,0,0,1,32.35-61.57v-9.51A74.7,74.7,0,0,0,170.74,176.53ZM178.18,18A167.36,167.36,0,0,0,78.12,180.8c0,.35.81,13.75-.29,36.38h8.42c1.09-22.78.25-36.17.2-36.9-3.77-66,34.44-128.14,95.08-154.66a160.26,160.26,0,0,1,29.88-9.76V7.33A168.62,168.62,0,0,0,178.18,18ZM141.62,109a121,121,0,0,0-17.11,69.76c0,.39.88,14.56-.36,38.39h8.43c1.21-23.94.32-38.11.26-38.92A112.73,112.73,0,0,1,211.41,64V55.28a121.31,121.31,0,0,0-14.6,5.31A119.92,119.92,0,0,0,141.62,109ZM123.68,5.76H109.84a214.25,214.25,0,0,0-78.2,177.3c0,.31.77,12.83-.18,34.12H39.8c1-21.61.19-34.32.17-34.62C36.17,112.7,68.73,46.23,123.68,5.76Zm-97.82,0H15.45c-2.17,2.94-4.17,5.69-5.62,7.75Q4.64,20.86,0,28.48V45.3a254.46,254.46,0,0,1,16.65-27C18.88,15.16,22.39,10.39,25.86,5.76Zm61.89,0H75.56a237.73,237.73,0,0,0-67,178.35.31.31,0,0,1,0,.1,316.87,316.87,0,0,1,.11,33h8.41a316.32,316.32,0,0,0-.19-33.58C13.24,116,40.28,51.12,87.75,5.76Z"/></g></g></svg>