<svg xmlns="http://www.w3.org/2000/svg" xmlns:xlink="http://www.w3.org/1999/xlink" width="440" height="437.707" viewBox="0 0 440 437.707"><defs><linearGradient id="a" x1="0.13" y1="0.117" x2="0.796" y2="0.785" gradientUnits="objectBoundingBox"><stop offset="0" stop-color="#387eb8"/><stop offset="1" stop-color="#366994"/></linearGradient><clipPath id="b"><path d="M-2680.127,861.307V764.8c0-58.364,59.4-57.4,59.4-57.4h105.719c63.4,0,61.394-62.389,61.394-62.389v-52.3h37.229s62.39-4,62.39,108.711-71.479,104.6-71.479,104.6h-148.929v15.066h106.592l.124,50.184s6.977,48.438-104.723,48.438C-2689.145,919.707-2680.127,861.307-2680.127,861.307Zm147.312,5.479a19.158,19.158,0,0,0,19.175,19.174,19.159,19.159,0,0,0,19.179-19.174,19.16,19.16,0,0,0-19.179-19.179A19.159,19.159,0,0,0-2532.815,866.786ZM-2794,700.288c0-112.705,71.475-104.6,71.475-104.6h148.93V580.622h-106.591l-.124-50.183S-2687.286,482-2575.587,482c116.728,0,107.711,58.4,107.711,58.4v96.506c0,58.364-59.4,57.4-59.4,57.4h-105.719c-63.4,0-61.391,62.385-61.391,62.385V809h-37.231s-.273.018-.785.018C-2739.609,809.013-2794,805.522-2794,700.288Zm140.461-165.366a19.159,19.159,0,0,0,19.177,19.176,19.159,19.159,0,0,0,19.177-19.176,19.158,19.158,0,0,0-19.177-19.176A19.158,19.158,0,0,0-2653.539,534.922Z" transform="translate(3397.369 679.139)" fill="url(#a)"/></clipPath><clipPath id="c"><rect width="979.378" height="597.704" fill="none"/></clipPath></defs><g transform="translate(-603.37 -1161.139)" opacity="0.5" clip-path="url(#b)"><g transform="translate(318.681 1070.823)" clip-path="url(#c)"><g transform="translate(-704.719 -1137.544)"><path d="M1655.291,656.559s57.629,129.665-41.164,277.854-102.909,366.356-102.909,366.356" transform="translate(-804 482)" fill="none" stroke="#1aef61" stroke-linecap="round" stroke-width="3"/></g><g transform="translate(-683.719 -1137.544)"><path d="M1655.291,656.559s57.629,129.665-41.164,277.854-102.909,366.356-102.909,366.356" transform="translate(-804 482)" fill="none" stroke="#1aef61" stroke-linecap="round" stroke-width="3"/></g><g transform="translate(-662.719 -1137.544)"><path d="M1655.291,656.559s57.629,129.665-41.164,277.854-102.909,366.356-102.909,366.356" transform="translate(-804 482)" fill="none" stroke="#1aef61" stroke-linecap="round" stroke-width="3"/></g><g transform="translate(-641.719 -1137.544)"><path d="M1655.291,656.559s57.629,129.665-41.164,277.854-102.909,366.356-102.909,366.356" transform="translate(-804 482)" fill="none" stroke="#1aef61" stroke-linecap="round" stroke-width="3"/></g><g transform="translate(-620.719 -1137.544)"><path d="M1655.291,656.559s57.629,129.665-41.164,277.854-102.909,366.356-102.909,366.356" transform="translate(-804 482)" fill="none" stroke="#1aef61" stroke-linecap="round" stroke-width="3"/></g><g transform="translate(-599.719 -1137.544)"><path d="M1655.291,656.559s57.629,129.665-41.164,277.854-102.909,366.356-102.909,366.356" transform="translate(-804 482)" fill="none" stroke="#1aef61" stroke-linecap="round" stroke-width="3"/></g><g transform="translate(-578.719 -1137.544)"><path d="M1655.291,656.559s57.629,129.665-41.164,277.854-102.909,366.356-102.909,366.356" transform="translate(-804 482)" fill="none" stroke="#1aef61" stroke-linecap="round" stroke-width="3"/></g><g transform="translate(-557.719 -1137.544)"><path d="M1655.291,656.559s57.629,129.665-41.164,277.854-102.909,366.356-102.909,366.356" transform="translate(-804 482)" fill="none" stroke="#1aef61" stroke-linecap="round" stroke-width="3"/></g><g transform="translate(-536.719 -1137.544)"><path d="M1655.291,656.559s57.629,129.665-41.164,277.854-102.909,366.356-102.909,366.356" transform="translate(-804 482)" fill="none" stroke="#1aef61" stroke-linecap="round" stroke-width="3"/></g><g transform="translate(-515.719 -1137.544)"><path d="M1655.291,656.559s57.629,129.665-41.164,277.854-102.909,366.356-102.909,366.356" transform="translate(-804 482)" fill="none" stroke="#1aef61" stroke-linecap="round" stroke-width="3"/></g><g transform="translate(-494.719 -1137.544)"><path d="M1655.291,656.559s57.629,129.665-41.164,277.854-102.909,366.356-102.909,366.356" transform="translate(-804 482)" fill="none" stroke="#1aef61" stroke-linecap="round" stroke-width="3"/></g><g transform="translate(-473.719 -1137.544)"><path d="M1655.291,656.559s57.629,129.665-41.164,277.854-102.909,366.356-102.909,366.356" transform="translate(-804 482)" fill="none" stroke="#1aef61" stroke-linecap="round" stroke-width="3"/></g><g transform="translate(-452.719 -1137.544)"><path d="M1655.291,656.559s57.629,129.665-41.164,277.854-102.909,366.356-102.909,366.356" transform="translate(-804 482)" fill="none" stroke="#1aef61" stroke-linecap="round" stroke-width="3"/></g><g transform="translate(-431.719 -1137.544)"><path d="M1655.291,656.559s57.629,129.665-41.164,277.854-102.909,366.356-102.909,366.356" transform="translate(-804 482)" fill="none" stroke="#1aef61" stroke-linecap="round" stroke-width="3"/></g><g transform="translate(-410.719 -1137.544)"><path d="M1655.291,656.559s57.629,129.665-41.164,277.854-102.909,366.356-102.909,366.356" transform="translate(-804 482)" fill="none" stroke="#1aef61" stroke-linecap="round" stroke-width="3"/></g><g transform="translate(-389.719 -1137.544)"><path d="M1655.291,656.559s57.629,129.665-41.164,277.854-102.909,366.356-102.909,366.356" transform="translate(-804 482)" fill="none" stroke="#1aef61" stroke-linecap="round" stroke-width="3"/></g><g transform="translate(-368.719 -1137.544)"><path d="M1655.291,656.559s57.629,129.665-41.164,277.854-102.909,366.356-102.909,366.356" transform="translate(-804 482)" fill="none" stroke="#1aef61" stroke-linecap="round" stroke-width="3"/></g><g transform="translate(-347.719 -1137.544)"><path d="M1655.291,656.559s57.629,129.665-41.164,277.854-102.909,366.356-102.909,366.356" transform="translate(-804 482)" fill="none" stroke="#1aef61" stroke-linecap="round" stroke-width="3"/></g><g transform="translate(-326.719 -1137.544)"><path d="M1655.291,656.559s57.629,129.665-41.164,277.854-102.909,366.356-102.909,366.356" transform="translate(-804 482)" fill="none" stroke="#1aef61" stroke-linecap="round" stroke-width="3"/></g><g transform="translate(-305.719 -1137.544)"><path d="M1655.291,656.559s57.629,129.665-41.164,277.854-102.909,366.356-102.909,366.356" transform="translate(-804 482)" fill="none" stroke="#1aef61" stroke-linecap="round" stroke-width="3"/></g><g transform="translate(-284.719 -1137.544)"><path d="M1655.291,656.559s57.629,129.665-41.164,277.854-102.909,366.356-102.909,366.356" transform="translate(-804 482)" fill="none" stroke="#1aef61" stroke-linecap="round" stroke-width="3"/></g><g transform="translate(-263.719 -1137.544)"><path d="M1655.291,656.559s57.629,129.665-41.164,277.854-102.909,366.356-102.909,366.356" transform="translate(-804 482)" fill="none" stroke="#1aef61" stroke-linecap="round" stroke-width="3"/></g><g transform="translate(-242.719 -1137.544)"><path d="M1655.291,656.559s57.629,129.665-41.164,277.854-102.909,366.356-102.909,366.356" transform="translate(-804 482)" fill="none" stroke="#1aef61" stroke-linecap="round" stroke-width="3"/></g><g transform="translate(-221.719 -1137.544)"><path d="M1655.291,656.559s57.629,129.665-41.164,277.854-102.909,366.356-102.909,366.356" transform="translate(-804 482)" fill="none" stroke="#1aef61" stroke-linecap="round" stroke-width="3"/></g><g transform="translate(-200.719 -1137.544)"><path d="M1655.291,656.559s57.629,129.665-41.164,277.854-102.909,366.356-102.909,366.356" transform="translate(-804 482)" fill="none" stroke="#1aef61" stroke-linecap="round" stroke-width="3"/></g><g transform="translate(-179.719 -1137.544)"><path d="M1655.291,656.559s57.629,129.665-41.164,277.854-102.909,366.356-102.909,366.356" transform="translate(-804 482)" fill="none" stroke="#1aef61" stroke-linecap="round" stroke-width="3"/></g><g transform="translate(-158.719 -1137.544)"><path d="M1655.291,656.559s57.629,129.665-41.164,277.854-102.909,366.356-102.909,366.356" transform="translate(-804 482)" fill="none" stroke="#1aef61" stroke-linecap="round" stroke-width="3"/></g><g transform="translate(-137.719 -1137.544)"><path d="M1655.291,656.559s57.629,129.665-41.164,277.854-102.909,366.356-102.909,366.356" transform="translate(-804 482)" fill="none" stroke="#1aef61" stroke-linecap="round" stroke-width="3"/></g><g transform="translate(-116.719 -1137.544)"><path d="M1655.291,656.559s57.629,129.665-41.164,277.854-102.909,366.356-102.909,366.356" transform="translate(-804 482)" fill="none" stroke="#1aef61" stroke-linecap="round" stroke-width="3"/></g><g transform="translate(-95.719 -1137.544)"><path d="M1655.291,656.559s57.629,129.665-41.164,277.854-102.909,366.356-102.909,366.356" transform="translate(-804 482)" fill="none" stroke="#1aef61" stroke-linecap="round" stroke-width="3"/></g><g transform="translate(-74.719 -1137.544)"><path d="M1655.291,656.559s57.629,129.665-41.164,277.854-102.909,366.356-102.909,366.356" transform="translate(-804 482)" fill="none" stroke="#1aef61" stroke-linecap="round" stroke-width="3"/></g><g transform="translate(-53.719 -1137.544)"><path d="M1655.291,656.559s57.629,129.665-41.164,277.854-102.909,366.356-102.909,366.356" transform="translate(-804 482)" fill="none" stroke="#1aef61" stroke-linecap="round" stroke-width="3"/></g><g transform="translate(-32.719 -1137.544)"><path d="M1655.291,656.559s57.629,129.665-41.164,277.854-102.909,366.356-102.909,366.356" transform="translate(-804 482)" fill="none" stroke="#1aef61" stroke-linecap="round" stroke-width="3"/></g><g transform="translate(-11.719 -1137.544)"><path d="M1655.291,656.559s57.629,129.665-41.164,277.854-102.909,366.356-102.909,366.356" transform="translate(-804 482)" fill="none" stroke="#1aef61" stroke-linecap="round" stroke-width="3"/></g><g transform="translate(9.281 -1137.544)"><path d="M1655.291,656.559s57.629,129.665-41.164,277.854-102.909,366.356-102.909,366.356" transform="translate(-804 482)" fill="none" stroke="#1aef61" stroke-linecap="round" stroke-width="3"/></g><g transform="translate(30.281 -1137.544)"><path d="M1655.291,656.559s57.629,129.665-41.164,277.854-102.909,366.356-102.909,366.356" transform="translate(-804 482)" fill="none" stroke="#1aef61" stroke-linecap="round" stroke-width="3"/></g><g transform="translate(51.281 -1137.544)"><path d="M1655.291,656.559s57.629,129.665-41.164,277.854-102.909,366.356-102.909,366.356" transform="translate(-804 482)" fill="none" stroke="#1aef61" stroke-linecap="round" stroke-width="3"/></g><g transform="translate(72.281 -1137.544)"><path d="M1655.291,656.559s57.629,129.665-41.164,277.854-102.909,366.356-102.909,366.356" transform="translate(-804 482)" fill="none" stroke="#1aef61" stroke-linecap="round" stroke-width="3"/></g><g transform="translate(93.281 -1137.544)"><path d="M1655.291,656.559s57.629,129.665-41.164,277.854-102.909,366.356-102.909,366.356" transform="translate(-804 482)" fill="none" stroke="#1aef61" stroke-linecap="round" stroke-width="3"/></g><g transform="translate(114.281 -1137.544)"><path d="M1655.291,656.559s57.629,129.665-41.164,277.854-102.909,366.356-102.909,366.356" transform="translate(-804 482)" fill="none" stroke="#1aef61" stroke-linecap="round" stroke-width="3"/></g><g transform="translate(135.281 -1137.544)"><path d="M1655.291,656.559s57.629,129.665-41.164,277.854-102.909,366.356-102.909,366.356" transform="translate(-804 482)" fill="none" stroke="#1aef61" stroke-linecap="round" stroke-width="3"/></g><g transform="translate(156.281 -1137.544)"><path d="M1655.291,656.559s57.629,129.665-41.164,277.854-102.909,366.356-102.909,366.356" transform="translate(-804 482)" fill="none" stroke="#1aef61" stroke-linecap="round" stroke-width="3"/></g><g transform="translate(177.281 -1137.544)"><path d="M1655.291,656.559s57.629,129.665-41.164,277.854-102.909,366.356-102.909,366.356" transform="translate(-804 482)" fill="none" stroke="#1aef61" stroke-linecap="round" stroke-width="3"/></g><g transform="translate(198.281 -1137.544)"><path d="M1655.291,656.559s57.629,129.665-41.164,277.854-102.909,366.356-102.909,366.356" transform="translate(-804 482)" fill="none" stroke="#1aef61" stroke-linecap="round" stroke-width="3"/></g><g transform="translate(219.281 -1137.544)"><path d="M1655.291,656.559s57.629,129.665-41.164,277.854-102.909,366.356-102.909,366.356" transform="translate(-804 482)" fill="none" stroke="#1aef61" stroke-linecap="round" stroke-width="3"/></g><g transform="translate(240.281 -1137.544)"><path d="M1655.291,656.559s57.629,129.665-41.164,277.854-102.909,366.356-102.909,366.356" transform="translate(-804 482)" fill="none" stroke="#1aef61" stroke-linecap="round" stroke-width="3"/></g><g transform="translate(261.281 -1137.544)"><path d="M1655.291,656.559s57.629,129.665-41.164,277.854-102.909,366.356-102.909,366.356" transform="translate(-804 482)" fill="none" stroke="#1aef61" stroke-linecap="round" stroke-width="3"/></g></g></g></svg>